<svg xmlns="http://www.w3.org/2000/svg" viewBox="0 0 512.002 512.002" xml:space="preserve" fill="currentColor" class="_2LPKLf0q_tRpIAu0PYK"><path d="M354.957 116.545c-6.044-10.441-9.507-22.568-9.507-35.509 0-39.213 31.784-70.997 70.997-70.997s70.997 31.784 70.997 70.997-31.784 70.997-70.997 70.997c-26.272.001-49.212-14.275-61.49-35.488zM354.957 395.455c12.278-21.213 35.218-35.489 61.49-35.489 39.213 0 70.997 31.784 70.997 70.997s-31.784 70.997-70.997 70.997-70.997-31.784-70.997-70.997c0-12.94 3.463-25.067 9.507-35.508zM158.098 222.379c5.391 10.009 8.453 21.454 8.453 33.621 0 39.213-31.784 70.997-70.997 70.997S24.556 295.213 24.556 256s31.784-70.997 70.997-70.997c27.046 0 50.558 15.119 62.545 37.376z"></path><path d="M416.447 0c-44.684 0-81.037 36.353-81.037 81.037a81.142 81.142 0 0 0 6.261 31.253l-40.115 21.566c-4.883 2.625-6.714 8.713-4.088 13.596a10.04 10.04 0 0 0 8.851 5.288 10 10 0 0 0 4.746-1.199l40.608-21.831c15.2 20.166 39.222 32.364 64.775 32.364 44.684 0 81.037-36.353 81.037-81.038C497.484 36.353 461.131 0 416.447 0zm0 141.995c-21.689 0-41.921-11.679-52.802-30.479-5.336-9.218-8.157-19.758-8.157-30.479.001-33.613 27.347-60.958 60.959-60.958s60.958 27.345 60.958 60.958-27.344 60.958-60.958 60.958zM416.447 349.927c-25.554 0-49.576 12.199-64.775 32.365l-180.558-97.061a80.583 80.583 0 0 0 5.477-29.23 81.387 81.387 0 0 0-5.449-29.235l83.299-44.783c4.883-2.625 6.714-8.713 4.088-13.596-2.624-4.883-8.713-6.715-13.596-4.088l-83.306 44.787a80.96 80.96 0 0 0-66.073-34.12c-44.684 0-81.037 36.353-81.037 81.037S50.87 337.04 95.554 337.04c27.215 0 51.32-13.499 66.024-34.137l180.095 96.811a81.146 81.146 0 0 0-6.261 31.253c0 44.684 36.353 81.037 81.038 81.037 44.684 0 81.037-36.353 81.037-81.037-.003-44.687-36.356-81.04-81.04-81.04zM95.554 316.958c-33.612 0-60.958-27.345-60.958-60.958s27.345-60.958 60.958-60.958c22.465 0 43.043 12.299 53.706 32.096 4.746 8.811 7.253 18.791 7.253 28.862-.001 33.612-27.347 60.958-60.959 60.958zm320.893 174.964c-33.612 0-60.959-27.345-60.959-60.958 0-10.722 2.821-21.262 8.158-30.48 10.881-18.8 31.113-30.478 52.801-30.478 33.612 0 60.958 27.346 60.958 60.959s-27.344 60.957-60.958 60.957zM279.091 147.242c-12.919 0-12.941 20.078 0 20.078 12.919.001 12.94-20.078 0-20.078z"></path></svg>